<svg viewBox="0 0 250 132" version="1.1" xmlns="http://www.w3.org/2000/svg" xmlns:xlink="http://www.w3.org/1999/xlink">
  <title>Kansas City 2018 American Guild of Organists</title>
  <g id="Group" transform="translate(93.000000, 86.000000)" fill="#FFFFFF">
    <path d="M7.546,4.646 L7.449,4.646 L5.47,10.343 L9.38,10.343 L7.546,4.646 L7.546,4.646 Z M4.601,12.82 C4.359,13.541 4.175,14.122 4.046,14.562 C3.917,15.003 3.876,15.352 3.925,15.608 C3.974,15.864 4.115,16.045 4.347,16.148 C4.581,16.253 4.939,16.329 5.421,16.377 L5.976,16.453 L6.048,16.884 L0.667,16.884 L0.74,16.449 L1.197,16.377 C1.552,16.329 1.845,16.253 2.079,16.148 C2.312,16.044 2.536,15.831 2.755,15.51 C2.972,15.188 3.204,14.723 3.454,14.112 C3.704,13.502 4.021,12.666 4.408,11.605 L7.159,3.967 L6.966,3.147 C7.159,3.099 7.365,3.015 7.581,2.894 C7.798,2.773 8.013,2.633 8.222,2.473 C8.431,2.311 8.62,2.14 8.788,1.954 C8.958,1.769 9.081,1.581 9.163,1.388 L9.597,1.388 L13.894,13.919 C14.07,14.417 14.228,14.818 14.365,15.124 C14.501,15.429 14.646,15.67 14.798,15.847 C14.951,16.023 15.113,16.148 15.281,16.221 C15.451,16.293 15.656,16.337 15.898,16.353 L16.62,16.449 L16.693,16.884 L9.21,16.884 L9.283,16.449 L9.984,16.377 C10.273,16.346 10.493,16.289 10.648,16.209 C10.8,16.129 10.896,16.001 10.937,15.824 C10.976,15.647 10.968,15.42 10.913,15.139 C10.857,14.859 10.755,14.511 10.611,14.094 L9.548,10.85 L5.277,10.85 L4.601,12.82 L4.601,12.82 Z" id="Fill-1"></path>
    <path d="M17.456,16.498 L17.867,16.474 C18.22,16.441 18.47,16.401 18.615,16.353 C18.759,16.305 18.831,16.208 18.831,16.063 L18.831,9.595 C18.831,9.225 18.82,8.923 18.796,8.689 C18.771,8.456 18.722,8.275 18.65,8.146 C18.577,8.018 18.474,7.917 18.337,7.845 C18.201,7.772 18.027,7.712 17.818,7.663 L17.31,7.543 L17.335,7.253 L21.632,6.07 L21.583,8.074 L21.659,8.074 C21.917,7.832 22.191,7.591 22.48,7.35 C22.769,7.108 23.076,6.892 23.396,6.698 C23.718,6.505 24.056,6.348 24.409,6.227 C24.763,6.106 25.132,6.046 25.519,6.046 C25.921,6.046 26.283,6.115 26.605,6.252 C26.925,6.389 27.216,6.577 27.472,6.818 C27.794,7.156 28.011,7.591 28.124,8.122 L28.197,8.146 C28.761,7.6 29.374,7.112 30.036,6.685 C30.701,6.26 31.417,6.046 32.193,6.046 C32.952,6.046 33.607,6.304 34.156,6.818 C34.429,7.108 34.632,7.511 34.761,8.025 C34.89,8.541 34.954,9.16 34.954,9.884 L34.954,16.063 C34.954,16.111 34.962,16.151 34.98,16.184 C34.995,16.216 35.038,16.248 35.113,16.28 C35.185,16.312 35.3,16.345 35.462,16.377 C35.622,16.409 35.839,16.441 36.113,16.474 L36.451,16.498 L36.525,16.884 L30.779,16.884 L30.851,16.498 L31.31,16.474 C31.712,16.441 31.958,16.389 32.046,16.316 C32.134,16.244 32.179,16.16 32.179,16.063 L32.179,10.222 C32.179,9.337 32.011,8.726 31.673,8.388 C31.335,8.05 30.835,7.881 30.175,7.881 C29.79,7.881 29.411,7.965 29.042,8.134 C28.671,8.303 28.421,8.5 28.292,8.726 C28.292,8.919 28.288,9.067 28.281,9.172 C28.273,9.277 28.269,9.377 28.269,9.474 L28.269,9.643 L28.269,16.087 C28.269,16.184 28.322,16.256 28.425,16.305 C28.531,16.353 28.831,16.409 29.331,16.474 L29.718,16.498 L29.79,16.884 L24.142,16.884 L24.214,16.498 L24.648,16.474 C25.019,16.441 25.255,16.389 25.361,16.316 C25.464,16.244 25.517,16.16 25.517,16.063 L25.517,10.222 C25.517,9.337 25.349,8.726 25.011,8.388 C24.673,8.05 24.181,7.881 23.538,7.881 C23.136,7.881 22.779,7.953 22.464,8.098 C22.15,8.243 21.865,8.404 21.607,8.581 L21.607,16.087 C21.607,16.2 21.663,16.284 21.777,16.341 C21.888,16.397 22.179,16.441 22.646,16.474 L23.056,16.498 L23.128,16.884 L17.384,16.884 L17.456,16.498" id="Fill-2"></path>
    <path d="M43.751,9.667 C43.751,9.265 43.724,8.874 43.667,8.496 C43.611,8.118 43.515,7.784 43.378,7.494 C43.242,7.205 43.064,6.972 42.847,6.795 C42.63,6.618 42.368,6.529 42.062,6.529 C41.499,6.529 40.992,6.818 40.542,7.398 C40.091,7.977 39.81,8.742 39.697,9.691 L43.751,9.667 L43.751,9.667 Z M41.724,17.246 C41.001,17.246 40.333,17.114 39.722,16.853 C39.109,16.592 38.583,16.221 38.14,15.743 C37.697,15.265 37.347,14.699 37.091,14.048 C36.833,13.396 36.704,12.684 36.704,11.911 C36.704,11.075 36.845,10.299 37.126,9.582 C37.408,8.866 37.802,8.243 38.31,7.712 C38.816,7.181 39.415,6.767 40.107,6.469 C40.798,6.171 41.556,6.022 42.376,6.022 C43.036,6.022 43.618,6.115 44.126,6.3 C44.632,6.485 45.06,6.738 45.406,7.06 C45.751,7.382 46.013,7.756 46.191,8.183 C46.367,8.609 46.456,9.063 46.456,9.546 C46.456,9.771 46.431,9.997 46.382,10.222 C45.208,10.222 44.146,10.214 43.197,10.198 C42.794,10.198 42.396,10.194 42.001,10.185 C41.607,10.178 41.245,10.17 40.915,10.162 C40.585,10.153 40.312,10.145 40.095,10.138 C39.878,10.13 39.738,10.125 39.673,10.125 C39.64,10.255 39.624,10.407 39.624,10.584 L39.624,11.043 C39.624,11.703 39.712,12.306 39.89,12.852 C40.068,13.4 40.312,13.866 40.626,14.253 C40.941,14.639 41.318,14.94 41.761,15.158 C42.202,15.375 42.691,15.483 43.222,15.483 C43.865,15.483 44.441,15.343 44.947,15.062 C45.454,14.78 45.9,14.325 46.286,13.697 L46.576,13.843 C46.093,14.937 45.454,15.777 44.658,16.365 C43.861,16.952 42.884,17.246 41.724,17.246 L41.724,17.246 Z" id="Fill-3"></path>
    <path d="M47.335,16.498 L47.722,16.474 C48.076,16.441 48.326,16.401 48.47,16.353 C48.615,16.305 48.689,16.208 48.689,16.063 L48.689,9.595 C48.689,9.225 48.675,8.923 48.652,8.689 C48.628,8.456 48.579,8.275 48.507,8.146 C48.435,8.018 48.329,7.917 48.193,7.845 C48.056,7.772 47.882,7.712 47.673,7.663 L47.167,7.543 L47.191,7.253 L51.488,6.07 L51.439,9.643 L51.511,9.643 C51.931,8.484 52.394,7.596 52.9,6.976 C53.408,6.356 54.031,6.046 54.771,6.046 C55.269,6.046 55.683,6.191 56.013,6.48 C56.343,6.77 56.509,7.173 56.509,7.687 C56.509,8.058 56.37,8.404 56.097,8.726 C55.824,9.048 55.47,9.208 55.036,9.208 C54.617,9.208 54.267,9.08 53.986,8.822 C53.704,8.564 53.515,8.226 53.419,7.809 C53.033,7.921 52.683,8.215 52.368,8.689 C52.054,9.164 51.753,9.86 51.464,10.777 L51.464,16.087 C51.464,16.2 51.533,16.284 51.669,16.341 C51.806,16.397 52.122,16.441 52.622,16.474 L53.249,16.498 L53.322,16.884 L47.263,16.884 L47.335,16.498" id="Fill-4"></path>
    <path d="M59.861,4.429 C59.314,4.429 58.892,4.248 58.595,3.886 C58.296,3.524 58.148,3.134 58.148,2.716 C58.148,2.297 58.296,1.907 58.595,1.545 C58.892,1.183 59.314,1.002 59.861,1.002 C60.425,1.002 60.855,1.183 61.152,1.545 C61.451,1.907 61.599,2.297 61.599,2.716 C61.599,3.134 61.451,3.524 61.152,3.886 C60.855,4.248 60.425,4.429 59.861,4.429 L59.861,4.429 Z M57.279,16.498 L57.689,16.474 C58.042,16.441 58.292,16.401 58.437,16.353 C58.581,16.305 58.654,16.208 58.654,16.063 L58.654,9.57 C58.654,9.2 58.642,8.902 58.618,8.678 C58.595,8.452 58.546,8.275 58.474,8.146 C58.402,8.018 58.296,7.917 58.159,7.845 C58.023,7.772 57.849,7.712 57.64,7.663 L57.134,7.543 L57.158,7.253 L61.431,6.07 L61.431,16.087 C61.431,16.2 61.493,16.28 61.622,16.329 C61.751,16.377 62.066,16.425 62.564,16.474 L62.902,16.498 L62.974,16.884 L57.206,16.884 L57.279,16.498 L57.279,16.498 Z" id="Fill-5"></path>
    <path d="M68.378,17.246 C67.656,17.246 66.988,17.113 66.376,16.848 C65.763,16.582 65.234,16.212 64.783,15.737 C64.331,15.263 63.982,14.703 63.732,14.059 C63.484,13.416 63.359,12.708 63.359,11.935 C63.359,11.1 63.499,10.322 63.781,9.606 C64.062,8.891 64.46,8.267 64.976,7.736 C65.49,7.205 66.101,6.787 66.81,6.48 C67.517,6.176 68.298,6.022 69.152,6.022 C69.699,6.022 70.204,6.083 70.671,6.203 C71.138,6.324 71.54,6.489 71.878,6.698 C72.216,6.907 72.478,7.161 72.663,7.458 C72.849,7.756 72.941,8.082 72.941,8.435 C72.941,8.887 72.8,9.244 72.519,9.51 C72.236,9.775 71.894,9.908 71.493,9.908 C71.025,9.908 70.656,9.735 70.382,9.39 C70.109,9.043 69.988,8.638 70.021,8.17 C70.021,7.913 70.093,7.696 70.238,7.518 C70.382,7.342 70.454,7.213 70.454,7.133 C70.423,6.987 70.281,6.854 70.033,6.734 C69.783,6.613 69.497,6.553 69.175,6.553 C68.355,6.553 67.675,6.94 67.136,7.715 C66.597,8.49 66.327,9.562 66.327,10.934 C66.327,12.353 66.644,13.468 67.281,14.274 C67.915,15.081 68.773,15.483 69.851,15.483 C70.495,15.483 71.062,15.343 71.552,15.062 C72.044,14.78 72.474,14.325 72.845,13.697 L73.134,13.843 C72.652,14.937 72.015,15.777 71.228,16.365 C70.439,16.952 69.49,17.246 68.378,17.246" id="Fill-6"></path>
    <path d="M78.146,15.483 C78.47,15.483 78.767,15.416 79.034,15.278 C79.302,15.143 79.574,14.937 79.849,14.663 L79.993,11.066 C79.314,11.227 78.759,11.409 78.329,11.61 C77.9,11.811 77.558,12.028 77.308,12.262 C77.056,12.495 76.882,12.736 76.784,12.985 C76.687,13.235 76.638,13.505 76.638,13.794 C76.638,14.309 76.784,14.72 77.076,15.025 C77.368,15.331 77.724,15.483 78.146,15.483 L78.146,15.483 Z M81.876,17.197 C81.329,17.197 80.886,17.024 80.548,16.679 C80.21,16.333 80.001,15.821 79.921,15.145 L79.872,15.122 C79.37,15.686 78.855,16.168 78.329,16.57 C77.802,16.972 77.214,17.174 76.566,17.174 C76.216,17.174 75.88,17.109 75.562,16.98 C75.242,16.852 74.964,16.679 74.724,16.461 C74.486,16.244 74.298,15.982 74.163,15.677 C74.027,15.371 73.96,15.05 73.96,14.712 C73.96,14.261 74.064,13.847 74.273,13.469 C74.482,13.091 74.82,12.74 75.286,12.419 C75.753,12.097 76.372,11.787 77.146,11.489 C77.917,11.191 78.859,10.906 79.97,10.633 L79.993,10.005 C80.025,8.976 79.827,8.198 79.398,7.676 C78.968,7.153 78.365,6.892 77.587,6.892 C77.148,6.892 76.781,6.956 76.482,7.084 C76.185,7.213 76.034,7.342 76.034,7.471 C76.034,7.518 76.072,7.587 76.144,7.676 C76.216,7.765 76.292,7.869 76.372,7.989 C76.452,8.11 76.531,8.243 76.603,8.388 C76.675,8.532 76.71,8.693 76.71,8.87 C76.71,9.192 76.583,9.482 76.327,9.739 C76.074,9.997 75.738,10.125 75.324,10.125 C74.941,10.125 74.613,10.02 74.341,9.811 C74.072,9.602 73.935,9.321 73.935,8.967 C73.935,8.581 74.109,8.211 74.454,7.856 C74.8,7.503 75.234,7.189 75.757,6.915 C76.281,6.642 76.851,6.425 77.472,6.264 C78.091,6.102 78.673,6.022 79.222,6.022 C80.54,6.022 81.482,6.324 82.046,6.928 C82.609,7.53 82.849,8.581 82.769,10.077 L82.576,14.422 C82.544,14.856 82.601,15.174 82.745,15.375 C82.89,15.576 83.099,15.677 83.372,15.677 C83.55,15.677 83.722,15.608 83.892,15.472 C84.06,15.335 84.234,15.179 84.411,15.001 L84.652,15.242 C84.507,15.436 84.333,15.645 84.132,15.87 C83.931,16.096 83.71,16.309 83.47,16.51 C83.228,16.711 82.974,16.876 82.708,17.005 C82.443,17.133 82.165,17.197 81.876,17.197 L81.876,17.197 Z" id="Fill-7"></path>
    <path d="M84.835,16.498 L85.245,16.474 C85.599,16.441 85.849,16.401 85.993,16.353 C86.138,16.305 86.212,16.208 86.212,16.063 L86.212,9.595 C86.212,9.225 86.199,8.923 86.175,8.689 C86.152,8.456 86.103,8.275 86.031,8.146 C85.958,8.018 85.853,7.917 85.716,7.845 C85.579,7.772 85.406,7.712 85.197,7.663 L84.691,7.543 L84.714,7.253 L89.011,6.07 L88.962,8.074 L89.034,8.074 C89.324,7.832 89.622,7.591 89.935,7.35 C90.247,7.108 90.576,6.892 90.919,6.698 C91.263,6.505 91.618,6.348 91.986,6.227 C92.355,6.106 92.73,6.046 93.115,6.046 C93.894,6.046 94.542,6.304 95.062,6.818 C95.355,7.108 95.566,7.491 95.695,7.965 C95.826,8.44 95.89,8.959 95.89,9.522 L95.89,16.063 C95.89,16.111 95.898,16.151 95.913,16.184 C95.931,16.216 95.978,16.248 96.06,16.28 C96.14,16.312 96.255,16.345 96.409,16.377 C96.562,16.409 96.775,16.441 97.048,16.474 L97.386,16.498 L97.458,16.884 L91.74,16.884 L91.812,16.498 L92.245,16.474 C92.648,16.441 92.894,16.389 92.982,16.316 C93.07,16.244 93.115,16.16 93.115,16.063 L93.115,10.222 C93.115,9.321 92.939,8.705 92.587,8.376 C92.234,8.046 91.738,7.881 91.099,7.881 C90.65,7.881 90.251,7.957 89.9,8.11 C89.546,8.263 89.243,8.428 88.988,8.604 L88.988,16.087 C88.988,16.2 89.042,16.284 89.156,16.341 C89.269,16.397 89.55,16.441 90.001,16.474 L90.46,16.498 L90.507,16.884 L84.763,16.884 L84.835,16.498" id="Fill-8"></path>
    <path d="M109.937,17.27 C108.634,17.27 107.454,17.077 106.402,16.69 C105.347,16.305 104.454,15.766 103.722,15.073 C102.99,14.382 102.423,13.557 102.021,12.6 C101.618,11.643 101.417,10.601 101.417,9.474 C101.417,8.315 101.622,7.249 102.033,6.275 C102.443,5.302 103.031,4.457 103.794,3.741 C104.558,3.025 105.488,2.466 106.581,2.063 C107.677,1.662 108.908,1.46 110.275,1.46 C110.661,1.46 111.048,1.484 111.433,1.533 C111.82,1.581 112.185,1.642 112.533,1.714 C112.878,1.786 113.191,1.871 113.474,1.967 C113.755,2.063 113.984,2.16 114.161,2.257 L115.874,1.774 L115.923,6.746 L115.296,6.746 L113.341,2.764 C113.003,2.522 112.56,2.333 112.013,2.196 C111.466,2.059 110.87,1.991 110.226,1.991 C109.359,1.991 108.589,2.177 107.921,2.548 C107.253,2.918 106.691,3.43 106.232,4.083 C105.773,4.735 105.427,5.505 105.195,6.392 C104.96,7.278 104.845,8.237 104.845,9.268 C104.845,10.477 104.99,11.549 105.279,12.484 C105.568,13.419 105.954,14.205 106.437,14.841 C106.919,15.478 107.48,15.958 108.115,16.279 C108.749,16.603 109.421,16.763 110.13,16.763 C110.661,16.763 111.167,16.687 111.652,16.533 C112.134,16.38 112.488,16.23 112.712,16.085 L112.712,11.093 C112.712,10.996 112.609,10.915 112.4,10.851 C112.189,10.786 111.82,10.737 111.288,10.705 L110.419,10.629 L110.347,10.198 L117.708,10.198 L117.636,10.633 L116.648,10.728 C116.277,10.762 116.027,10.809 115.9,10.874 C115.771,10.938 115.706,11.011 115.706,11.091 L115.706,15.46 L117.105,15.339 L117.154,15.629 C116.687,15.838 116.156,16.043 115.562,16.244 C114.966,16.445 114.345,16.622 113.702,16.775 C113.058,16.928 112.411,17.049 111.759,17.138 C111.107,17.226 110.499,17.27 109.937,17.27" id="Fill-9"></path>
    <path d="M126.167,15.17 L126.118,15.17 C125.829,15.428 125.527,15.681 125.206,15.931 C124.886,16.18 124.558,16.401 124.222,16.594 C123.886,16.787 123.538,16.94 123.179,17.053 C122.82,17.165 122.447,17.222 122.064,17.222 C121.658,17.222 121.304,17.153 121.003,17.017 C120.704,16.88 120.408,16.675 120.115,16.401 C119.839,16.111 119.636,15.737 119.507,15.278 C119.376,14.82 119.32,14.293 119.335,13.697 L119.361,7.156 C119.361,7.108 119.353,7.068 119.335,7.036 C119.32,7.004 119.271,6.976 119.191,6.951 C119.111,6.928 118.99,6.903 118.829,6.879 C118.667,6.854 118.451,6.827 118.177,6.795 L117.79,6.77 L117.718,6.384 L122.183,6.384 L122.111,13.07 C122.095,13.939 122.263,14.539 122.615,14.868 C122.968,15.198 123.48,15.363 124.152,15.363 C124.566,15.363 124.943,15.291 125.279,15.145 C125.615,15.001 125.902,14.841 126.142,14.663 L126.142,7.471 C126.142,7.229 126.074,7.064 125.937,6.976 C125.8,6.888 125.492,6.827 125.007,6.795 L124.574,6.77 L124.478,6.384 L128.894,6.384 L128.894,14.566 C128.894,14.985 128.935,15.263 129.015,15.399 C129.095,15.536 129.255,15.645 129.497,15.726 L130.488,15.967 L130.439,16.232 L126.142,17.27 L126.167,15.17" id="Fill-10"></path>
    <path d="M133.716,4.429 C133.169,4.429 132.745,4.248 132.449,3.886 C132.15,3.524 132.001,3.134 132.001,2.716 C132.001,2.297 132.15,1.907 132.449,1.545 C132.745,1.183 133.169,1.002 133.716,1.002 C134.279,1.002 134.708,1.183 135.007,1.545 C135.304,1.907 135.454,2.297 135.454,2.716 C135.454,3.134 135.304,3.524 135.007,3.886 C134.708,4.248 134.279,4.429 133.716,4.429 L133.716,4.429 Z M131.132,16.498 L131.544,16.474 C131.898,16.441 132.148,16.401 132.292,16.353 C132.437,16.305 132.509,16.208 132.509,16.063 L132.509,9.57 C132.509,9.2 132.497,8.902 132.472,8.678 C132.449,8.452 132.4,8.275 132.327,8.146 C132.255,8.018 132.15,7.917 132.015,7.845 C131.876,7.772 131.704,7.712 131.495,7.663 L130.988,7.543 L131.013,7.253 L135.284,6.07 L135.284,16.087 C135.284,16.2 135.349,16.28 135.478,16.329 C135.607,16.377 135.919,16.425 136.419,16.474 L136.757,16.498 L136.829,16.884 L131.06,16.884 L131.132,16.498 L131.132,16.498 Z" id="Fill-11"></path>
    <path d="M137.667,16.498 L138.077,16.474 C138.431,16.441 138.669,16.401 138.788,16.353 C138.909,16.305 138.97,16.208 138.97,16.063 L138.97,3.753 C138.97,3.174 138.917,2.792 138.814,2.606 C138.708,2.422 138.495,2.281 138.173,2.184 L137.451,1.919 L137.474,1.629 L141.745,0.495 L141.745,16.087 C141.745,16.2 141.81,16.28 141.939,16.329 C142.068,16.377 142.349,16.425 142.784,16.474 L143.169,16.498 L143.242,16.884 L137.595,16.884 L137.667,16.498" id="Fill-12"></path>
    <path d="M149.576,15.532 C150.042,15.532 150.445,15.436 150.783,15.242 C151.12,15.05 151.425,14.816 151.699,14.543 L151.699,8.726 C151.378,8.131 150.984,7.64 150.517,7.253 C150.05,6.867 149.583,6.674 149.117,6.674 C148.73,6.674 148.38,6.791 148.068,7.023 C147.753,7.257 147.492,7.575 147.283,7.977 C147.074,8.38 146.911,8.858 146.8,9.413 C146.687,9.969 146.63,10.568 146.63,11.212 C146.63,11.839 146.699,12.415 146.835,12.937 C146.972,13.461 147.169,13.915 147.427,14.301 C147.685,14.687 147.993,14.989 148.357,15.206 C148.718,15.424 149.124,15.532 149.576,15.532 L149.576,15.532 Z M151.699,15.145 L151.652,15.122 C151.185,15.701 150.638,16.196 150.009,16.606 C149.382,17.017 148.706,17.222 147.982,17.222 C147.37,17.222 146.8,17.089 146.269,16.823 C145.738,16.558 145.279,16.196 144.892,15.737 C144.507,15.278 144.201,14.727 143.976,14.084 C143.749,13.44 143.638,12.748 143.638,12.008 C143.638,11.059 143.802,10.222 144.132,9.498 C144.462,8.773 144.902,8.162 145.449,7.663 C145.995,7.165 146.622,6.787 147.331,6.529 C148.038,6.271 148.763,6.143 149.503,6.143 C150.355,6.143 151.079,6.264 151.675,6.505 L151.699,6.505 L151.699,3.223 C151.699,2.788 151.648,2.486 151.542,2.317 C151.437,2.148 151.224,2.023 150.904,1.943 L149.913,1.678 L149.962,1.412 L154.451,0.495 L154.451,14.832 C154.451,15.251 154.492,15.528 154.572,15.665 C154.652,15.802 154.814,15.91 155.054,15.991 L156.044,16.232 L155.995,16.521 L151.699,17.246 L151.699,15.145 L151.699,15.145 Z" id="Fill-13"></path>
    <path d="M7.327,39.918 C7.747,39.918 8.124,39.794 8.462,39.545 C8.8,39.296 9.081,38.955 9.308,38.521 C9.533,38.088 9.706,37.578 9.826,36.992 C9.947,36.406 10.007,35.769 10.007,35.078 C10.007,33.891 9.902,32.902 9.695,32.116 C9.484,31.329 9.187,30.744 8.8,30.358 C8.624,30.182 8.415,30.033 8.173,29.913 C7.931,29.793 7.642,29.732 7.304,29.732 C6.87,29.732 6.488,29.853 6.158,30.094 C5.827,30.334 5.546,30.671 5.314,31.104 C5.079,31.538 4.906,32.044 4.794,32.622 C4.681,33.199 4.624,33.825 4.624,34.5 C4.624,36.876 5.019,38.474 5.808,39.292 C6.195,39.709 6.701,39.918 7.327,39.918 L7.327,39.918 Z M7.232,40.425 C6.363,40.425 5.577,40.28 4.878,39.99 C4.179,39.701 3.583,39.303 3.093,38.796 C2.601,38.289 2.224,37.697 1.958,37.021 C1.693,36.346 1.56,35.622 1.56,34.85 C1.56,34.077 1.704,33.349 1.993,32.665 C2.285,31.981 2.691,31.386 3.212,30.879 C3.736,30.372 4.355,29.97 5.072,29.672 C5.786,29.374 6.579,29.226 7.449,29.226 C8.318,29.226 9.099,29.37 9.79,29.66 C10.482,29.949 11.077,30.344 11.576,30.843 C12.076,31.342 12.458,31.925 12.722,32.593 C12.988,33.261 13.12,33.973 13.12,34.728 C13.12,35.518 12.976,36.258 12.687,36.949 C12.398,37.642 11.99,38.244 11.468,38.76 C10.945,39.274 10.326,39.681 9.609,39.978 C8.894,40.275 8.101,40.425 7.232,40.425 L7.232,40.425 Z" id="Fill-14"></path>
    <path d="M13.734,39.701 L14.216,39.677 C14.554,39.645 14.794,39.604 14.941,39.556 C15.085,39.508 15.158,39.411 15.158,39.267 L15.158,30.939 L13.251,30.891 L13.685,29.636 L15.132,29.636 L15.181,28.525 C15.23,27.801 15.415,27.149 15.736,26.57 C16.058,25.991 16.464,25.5 16.956,25.098 C17.447,24.696 17.993,24.386 18.597,24.169 C19.201,23.951 19.808,23.843 20.419,23.843 C21.191,23.843 21.763,23.987 22.132,24.277 C22.503,24.567 22.689,24.921 22.689,25.339 C22.689,25.71 22.55,26.023 22.277,26.28 C22.003,26.538 21.675,26.667 21.288,26.667 C20.451,26.667 19.888,26.039 19.599,24.784 L19.55,24.64 L19.068,24.543 C18.632,24.736 18.335,25.098 18.175,25.629 C18.013,26.16 17.933,26.989 17.933,28.115 L17.933,29.636 L20.997,29.636 L20.659,30.891 L17.933,30.891 L17.933,39.29 C17.933,39.403 17.993,39.487 18.115,39.544 C18.234,39.601 18.544,39.645 19.042,39.677 L19.911,39.701 L19.984,40.087 L13.661,40.087 L13.734,39.701" id="Fill-15"></path>
    <path d="M33.259,39.918 C34.74,39.918 35.894,39.313 36.722,38.104 C37.552,36.895 37.966,35.066 37.966,32.616 C37.966,31.44 37.849,30.393 37.617,29.474 C37.382,28.555 37.052,27.781 36.626,27.153 C36.199,26.524 35.689,26.045 35.093,25.714 C34.497,25.384 33.837,25.219 33.115,25.219 C31.618,25.219 30.451,25.823 29.615,27.032 C28.777,28.241 28.359,30.07 28.359,32.52 C28.359,34.89 28.806,36.715 29.699,37.996 C30.591,39.277 31.779,39.918 33.259,39.918 L33.259,39.918 Z M33.066,40.425 C31.874,40.425 30.784,40.235 29.796,39.857 C28.806,39.479 27.952,38.948 27.238,38.265 C26.521,37.581 25.962,36.756 25.56,35.791 C25.158,34.825 24.956,33.763 24.956,32.604 C24.956,31.526 25.177,30.509 25.62,29.551 C26.062,28.594 26.661,27.753 27.417,27.029 C28.173,26.305 29.06,25.733 30.074,25.315 C31.087,24.896 32.165,24.687 33.308,24.687 C34.497,24.687 35.587,24.877 36.577,25.255 C37.568,25.633 38.419,26.164 39.136,26.848 C39.853,27.532 40.411,28.356 40.814,29.322 C41.216,30.287 41.417,31.357 41.417,32.532 C41.417,33.61 41.197,34.628 40.753,35.585 C40.31,36.543 39.712,37.38 38.954,38.096 C38.199,38.812 37.314,39.379 36.3,39.797 C35.286,40.216 34.208,40.425 33.066,40.425 L33.066,40.425 Z" id="Fill-16"></path>
    <path d="M42.579,39.701 L42.966,39.677 C43.32,39.645 43.57,39.604 43.714,39.556 C43.859,39.508 43.933,39.411 43.933,39.267 L43.933,32.798 C43.933,32.428 43.919,32.126 43.896,31.893 C43.872,31.659 43.824,31.478 43.751,31.35 C43.679,31.221 43.574,31.12 43.437,31.048 C43.3,30.976 43.126,30.915 42.917,30.866 L42.411,30.746 L42.435,30.456 L46.732,29.273 L46.683,32.846 L46.755,32.846 C47.175,31.687 47.638,30.799 48.144,30.179 C48.652,29.56 49.275,29.249 50.015,29.249 C50.513,29.249 50.927,29.395 51.257,29.684 C51.587,29.974 51.753,30.376 51.753,30.891 C51.753,31.261 51.615,31.607 51.341,31.929 C51.068,32.251 50.714,32.411 50.281,32.411 C49.861,32.411 49.511,32.283 49.23,32.025 C48.949,31.768 48.759,31.43 48.663,31.012 C48.277,31.124 47.927,31.418 47.613,31.893 C47.298,32.367 46.997,33.063 46.708,33.98 L46.708,39.29 C46.708,39.403 46.777,39.487 46.913,39.544 C47.05,39.601 47.367,39.645 47.867,39.677 L48.493,39.701 L48.566,40.087 L42.507,40.087 L42.579,39.701" id="Fill-17"></path>
    <path d="M56.954,35.983 C58.161,35.983 58.765,34.978 58.765,32.967 C58.765,31.953 58.62,31.156 58.329,30.577 C58.04,29.998 57.581,29.708 56.954,29.708 C56.408,29.708 55.984,29.962 55.687,30.469 C55.388,30.976 55.24,31.744 55.24,32.773 C55.24,33.819 55.394,34.616 55.699,35.163 C56.005,35.71 56.423,35.983 56.954,35.983 L56.954,35.983 Z M57.388,45.349 C57.904,45.349 58.367,45.28 58.777,45.144 C59.187,45.007 59.544,44.817 59.851,44.576 C60.156,44.335 60.39,44.058 60.55,43.743 C60.71,43.43 60.792,43.088 60.792,42.718 C60.792,42.106 60.577,41.644 60.152,41.33 C59.726,41.017 59.031,40.835 58.064,40.787 C57.742,40.755 57.327,40.755 56.822,40.787 C56.314,40.819 55.763,40.851 55.167,40.884 C54.798,41.028 54.499,41.277 54.275,41.632 C54.05,41.985 53.937,42.404 53.937,42.887 C53.937,43.611 54.251,44.202 54.878,44.661 C55.505,45.119 56.343,45.349 57.388,45.349 L57.388,45.349 Z M56.134,46 C54.718,46 53.64,45.787 52.9,45.36 C52.159,44.935 51.788,44.311 51.788,43.49 C51.788,43.152 51.872,42.847 52.042,42.573 C52.21,42.299 52.429,42.054 52.695,41.837 C52.96,41.619 53.261,41.427 53.599,41.258 C53.937,41.089 54.275,40.939 54.613,40.811 L54.613,40.763 C53.888,40.682 53.292,40.44 52.827,40.039 C52.361,39.637 52.126,39.178 52.126,38.663 C52.126,38.341 52.202,38.047 52.357,37.782 C52.509,37.517 52.706,37.275 52.947,37.058 C53.189,36.841 53.466,36.655 53.781,36.503 C54.093,36.35 54.411,36.225 54.734,36.129 C54.734,36.112 54.742,36.097 54.757,36.08 C54.115,35.839 53.583,35.465 53.165,34.958 C52.745,34.451 52.536,33.796 52.536,32.99 C52.536,32.476 52.646,31.993 52.863,31.542 C53.079,31.092 53.386,30.697 53.781,30.359 C54.175,30.021 54.644,29.753 55.193,29.551 C55.74,29.351 56.335,29.249 56.978,29.249 C57.54,29.249 58.072,29.322 58.572,29.467 C59.07,29.611 59.513,29.805 59.9,30.046 L63.181,29.636 L62.988,31.06 L60.599,30.697 L60.576,30.794 C60.816,31.02 61.017,31.301 61.177,31.639 C61.339,31.977 61.419,32.348 61.419,32.749 C61.419,33.28 61.306,33.768 61.081,34.21 C60.857,34.652 60.542,35.038 60.14,35.368 C59.738,35.698 59.255,35.956 58.693,36.141 C58.128,36.326 57.517,36.418 56.857,36.418 C56.583,36.418 56.31,36.402 56.036,36.37 C55.763,36.338 55.521,36.298 55.312,36.249 C54.974,36.33 54.693,36.475 54.468,36.684 C54.242,36.893 54.13,37.135 54.13,37.408 C54.13,38.035 54.742,38.349 55.964,38.349 C56.158,38.349 56.386,38.346 56.652,38.337 C56.917,38.329 57.191,38.321 57.474,38.312 C57.755,38.305 58.036,38.297 58.318,38.289 C58.599,38.281 58.845,38.276 59.054,38.276 C60.148,38.276 61.021,38.546 61.673,39.085 C62.324,39.625 62.65,40.36 62.65,41.294 C62.65,41.953 62.493,42.569 62.179,43.141 C61.867,43.711 61.419,44.206 60.839,44.625 C60.261,45.043 59.574,45.377 58.777,45.626 C57.98,45.876 57.099,46 56.134,46 L56.134,46 Z" id="Fill-19"></path>
    <path d="M67.841,38.687 C68.165,38.687 68.462,38.619 68.73,38.481 C68.997,38.346 69.269,38.14 69.544,37.866 L69.689,34.27 C69.009,34.431 68.454,34.612 68.025,34.813 C67.595,35.015 67.253,35.231 67.003,35.465 C66.751,35.698 66.577,35.939 66.48,36.188 C66.382,36.438 66.333,36.708 66.333,36.997 C66.333,37.513 66.48,37.923 66.771,38.228 C67.064,38.534 67.419,38.687 67.841,38.687 L67.841,38.687 Z M71.572,40.4 C71.025,40.4 70.581,40.228 70.243,39.882 C69.906,39.536 69.697,39.024 69.617,38.349 L69.568,38.325 C69.066,38.889 68.55,39.371 68.025,39.773 C67.497,40.175 66.909,40.377 66.261,40.377 C65.911,40.377 65.576,40.312 65.257,40.184 C64.937,40.055 64.659,39.882 64.419,39.664 C64.181,39.447 63.993,39.186 63.859,38.88 C63.722,38.574 63.656,38.253 63.656,37.915 C63.656,37.464 63.759,37.05 63.968,36.672 C64.177,36.294 64.515,35.943 64.982,35.622 C65.449,35.3 66.068,34.99 66.841,34.692 C67.613,34.395 68.554,34.109 69.665,33.836 L69.689,33.208 C69.72,32.179 69.523,31.401 69.093,30.879 C68.663,30.356 68.06,30.095 67.283,30.095 C66.843,30.095 66.476,30.159 66.177,30.287 C65.88,30.416 65.73,30.545 65.73,30.674 C65.73,30.722 65.767,30.79 65.839,30.879 C65.911,30.968 65.988,31.072 66.068,31.192 C66.148,31.313 66.226,31.446 66.298,31.591 C66.37,31.735 66.406,31.896 66.406,32.073 C66.406,32.395 66.279,32.686 66.023,32.942 C65.769,33.2 65.433,33.328 65.019,33.328 C64.636,33.328 64.308,33.224 64.036,33.015 C63.767,32.806 63.63,32.524 63.63,32.17 C63.63,31.784 63.804,31.414 64.15,31.06 C64.495,30.706 64.929,30.393 65.452,30.118 C65.976,29.845 66.546,29.628 67.167,29.467 C67.786,29.306 68.368,29.226 68.917,29.226 C70.236,29.226 71.177,29.527 71.742,30.131 C72.304,30.733 72.544,31.784 72.464,33.28 L72.271,37.625 C72.24,38.06 72.296,38.377 72.441,38.578 C72.585,38.779 72.794,38.88 73.068,38.88 C73.245,38.88 73.417,38.812 73.587,38.675 C73.755,38.538 73.929,38.382 74.107,38.204 L74.347,38.445 C74.202,38.639 74.029,38.848 73.827,39.073 C73.626,39.299 73.406,39.512 73.165,39.713 C72.923,39.914 72.669,40.079 72.404,40.208 C72.138,40.336 71.861,40.4 71.572,40.4 L71.572,40.4 Z" id="Fill-21"></path>
    <path d="M74.531,39.701 L74.941,39.677 C75.294,39.645 75.544,39.604 75.689,39.556 C75.833,39.508 75.908,39.411 75.908,39.267 L75.908,32.798 C75.908,32.428 75.894,32.126 75.87,31.893 C75.847,31.659 75.798,31.478 75.726,31.35 C75.654,31.221 75.548,31.12 75.411,31.048 C75.275,30.976 75.101,30.915 74.892,30.866 L74.386,30.746 L74.409,30.456 L78.706,29.273 L78.658,31.277 L78.73,31.277 C79.019,31.035 79.318,30.794 79.63,30.553 C79.943,30.312 80.271,30.095 80.615,29.901 C80.958,29.708 81.314,29.551 81.681,29.431 C82.05,29.31 82.425,29.249 82.81,29.249 C83.589,29.249 84.238,29.507 84.757,30.021 C85.05,30.312 85.261,30.694 85.39,31.168 C85.521,31.644 85.585,32.162 85.585,32.726 L85.585,39.267 C85.585,39.314 85.593,39.354 85.609,39.387 C85.626,39.419 85.673,39.451 85.755,39.483 C85.835,39.516 85.951,39.548 86.105,39.58 C86.257,39.612 86.47,39.645 86.743,39.677 L87.081,39.701 L87.154,40.087 L81.435,40.087 L81.507,39.701 L81.941,39.677 C82.343,39.645 82.589,39.592 82.677,39.52 C82.765,39.447 82.81,39.363 82.81,39.267 L82.81,33.425 C82.81,32.524 82.634,31.908 82.283,31.579 C81.929,31.249 81.433,31.084 80.794,31.084 C80.345,31.084 79.947,31.16 79.595,31.313 C79.242,31.466 78.939,31.631 78.683,31.808 L78.683,39.29 C78.683,39.403 78.738,39.487 78.851,39.544 C78.964,39.601 79.245,39.645 79.697,39.677 L80.156,39.701 L80.202,40.087 L74.458,40.087 L74.531,39.701" id="Fill-22"></path>
    <path d="M90.47,27.632 C89.923,27.632 89.501,27.451 89.204,27.089 C88.906,26.728 88.757,26.337 88.757,25.919 C88.757,25.5 88.906,25.11 89.204,24.748 C89.501,24.386 89.923,24.205 90.47,24.205 C91.034,24.205 91.464,24.386 91.761,24.748 C92.06,25.11 92.208,25.5 92.208,25.919 C92.208,26.337 92.06,26.728 91.761,27.089 C91.464,27.451 91.034,27.632 90.47,27.632 L90.47,27.632 Z M87.888,39.701 L88.298,39.677 C88.652,39.645 88.902,39.604 89.046,39.556 C89.191,39.508 89.263,39.411 89.263,39.267 L89.263,32.773 C89.263,32.403 89.251,32.105 89.228,31.881 C89.204,31.655 89.156,31.478 89.083,31.35 C89.011,31.221 88.906,31.12 88.769,31.048 C88.632,30.976 88.458,30.915 88.249,30.866 L87.743,30.746 L87.767,30.456 L92.04,29.273 L92.04,39.29 C92.04,39.403 92.103,39.483 92.232,39.532 C92.361,39.58 92.675,39.628 93.173,39.677 L93.511,39.701 L93.583,40.087 L87.816,40.087 L87.888,39.701 L87.888,39.701 Z" id="Fill-23"></path>
    <path d="M98.085,40.425 C97.394,40.425 96.745,40.365 96.142,40.248 C95.538,40.129 95.003,39.979 94.536,39.797 L94.392,36.708 L94.972,36.731 L95.576,38.107 C95.929,38.687 96.312,39.134 96.722,39.447 C97.132,39.761 97.634,39.918 98.23,39.918 C98.859,39.918 99.361,39.749 99.74,39.412 C100.117,39.075 100.306,38.634 100.306,38.088 C100.306,37.799 100.238,37.546 100.101,37.329 C99.964,37.113 99.779,36.92 99.546,36.752 C99.312,36.583 99.038,36.427 98.726,36.282 C98.411,36.138 98.077,36.001 97.724,35.872 C97.304,35.712 96.904,35.54 96.517,35.354 C96.13,35.17 95.792,34.954 95.503,34.705 C95.212,34.456 94.984,34.159 94.816,33.813 C94.646,33.469 94.562,33.047 94.562,32.55 C94.562,32.067 94.658,31.622 94.851,31.213 C95.044,30.804 95.314,30.454 95.659,30.165 C96.005,29.877 96.423,29.651 96.915,29.491 C97.406,29.33 97.949,29.249 98.544,29.249 C99.011,29.249 99.445,29.286 99.847,29.358 C100.249,29.431 100.611,29.523 100.933,29.636 L101.923,29.395 L102.044,32.652 L101.49,32.677 L100.04,30.264 C99.847,30.135 99.622,30.014 99.365,29.901 C99.107,29.789 98.818,29.732 98.495,29.732 C97.933,29.732 97.49,29.881 97.167,30.179 C96.847,30.477 96.685,30.883 96.685,31.397 C96.685,31.961 96.919,32.384 97.386,32.665 C97.853,32.946 98.464,33.224 99.22,33.497 C99.638,33.658 100.044,33.832 100.439,34.017 C100.833,34.202 101.187,34.423 101.501,34.681 C101.814,34.937 102.064,35.247 102.249,35.609 C102.433,35.972 102.527,36.41 102.527,36.925 C102.527,37.376 102.433,37.811 102.249,38.228 C102.064,38.647 101.786,39.021 101.415,39.351 C101.046,39.681 100.583,39.942 100.029,40.135 C99.474,40.328 98.826,40.425 98.085,40.425" id="Fill-24"></path>
    <path d="M107.73,40.4 C106.765,40.4 106.033,40.144 105.534,39.628 C105.034,39.113 104.802,38.309 104.833,37.215 L104.954,30.963 L102.999,30.915 L103.361,30.095 L105.099,28.767 L107.247,27.077 L107.658,27.125 L107.634,29.611 L111.327,29.611 L111.013,30.891 L107.609,30.891 L107.49,36.756 C107.472,37.528 107.622,38.075 107.935,38.397 C108.249,38.72 108.712,38.88 109.324,38.88 C109.742,38.88 110.115,38.812 110.445,38.675 C110.775,38.538 111.07,38.373 111.327,38.18 L111.423,38.47 C110.908,39.017 110.345,39.476 109.734,39.846 C109.122,40.216 108.454,40.4 107.73,40.4" id="Fill-25"></path>
    <path d="M115.857,40.425 C115.165,40.425 114.517,40.365 113.913,40.248 C113.31,40.129 112.775,39.979 112.308,39.797 L112.163,36.708 L112.743,36.731 L113.347,38.107 C113.701,38.687 114.083,39.134 114.493,39.447 C114.904,39.761 115.406,39.918 116.001,39.918 C116.63,39.918 117.132,39.749 117.511,39.412 C117.888,39.075 118.077,38.634 118.077,38.088 C118.077,37.799 118.009,37.546 117.872,37.329 C117.736,37.113 117.55,36.92 117.318,36.752 C117.083,36.583 116.81,36.427 116.497,36.282 C116.183,36.138 115.849,36.001 115.495,35.872 C115.076,35.712 114.675,35.54 114.288,35.354 C113.902,35.17 113.564,34.954 113.275,34.705 C112.984,34.456 112.755,34.159 112.587,33.813 C112.417,33.469 112.333,33.047 112.333,32.55 C112.333,32.067 112.429,31.622 112.622,31.213 C112.816,30.804 113.085,30.454 113.431,30.165 C113.777,29.877 114.195,29.651 114.687,29.491 C115.177,29.33 115.72,29.249 116.316,29.249 C116.783,29.249 117.216,29.286 117.618,29.358 C118.021,29.431 118.382,29.523 118.704,29.636 L119.695,29.395 L119.816,32.652 L119.261,32.677 L117.812,30.264 C117.618,30.135 117.394,30.014 117.136,29.901 C116.878,29.789 116.589,29.732 116.267,29.732 C115.704,29.732 115.261,29.881 114.939,30.179 C114.618,30.477 114.456,30.883 114.456,31.397 C114.456,31.961 114.691,32.384 115.158,32.665 C115.624,32.946 116.236,33.224 116.992,33.497 C117.409,33.658 117.816,33.832 118.21,34.017 C118.605,34.202 118.958,34.423 119.273,34.681 C119.585,34.937 119.835,35.247 120.021,35.609 C120.204,35.972 120.298,36.41 120.298,36.925 C120.298,37.376 120.204,37.811 120.021,38.228 C119.835,38.647 119.558,39.021 119.187,39.351 C118.818,39.681 118.355,39.942 117.8,40.135 C117.245,40.328 116.597,40.425 115.857,40.425" id="Fill-26"></path>
  </g>
  <g id="Group-2" transform="translate(94.000000, 76.000000)" fill="#D96747">
    <polygon id="Fill-27" points="0.359 3.186 44.52 3.186 44.52 0.101 0.359 0.101"></polygon>
    <polygon id="Fill-28" points="69.777 3.186 153.854 3.186 153.854 0.101 69.777 0.101"></polygon>
  </g>
  <g id="Group-3" transform="translate(91.000000, 0.000000)" fill="#FFFFFF">
    <polyline id="Fill-29" points="8.616 13.267 17.955 0.874 26.128 0.874 15.036 14.569 26.397 28.938 17.866 28.938 8.616 16.59 8.571 16.59 8.571 28.938 1.431 28.938 1.431 0.874 8.571 0.874 8.571 13.267 8.616 13.267"></polyline>
    <path d="M39.738,19.643 C37.582,19.884 36.071,20.235 35.202,20.698 C34.334,21.163 33.901,21.859 33.901,22.787 C33.901,23.476 34.14,24.021 34.618,24.426 C35.097,24.83 35.726,25.032 36.505,25.032 C37.193,25.032 37.814,24.905 38.368,24.65 C38.922,24.396 39.378,24.059 39.738,23.64 L39.738,19.643 L39.738,19.643 Z M39.783,26.424 C39.034,27.292 38.203,28.04 37.29,28.669 C36.377,29.298 35.202,29.612 33.766,29.612 C32.867,29.612 32.03,29.462 31.251,29.163 C30.472,28.864 29.799,28.452 29.231,27.928 C28.661,27.404 28.212,26.791 27.883,26.087 C27.554,25.384 27.389,24.628 27.389,23.819 C27.389,22.832 27.591,21.904 27.995,21.035 C28.4,20.168 29.08,19.404 30.038,18.745 C30.996,18.087 32.269,17.549 33.856,17.129 C35.442,16.71 37.403,16.471 39.738,16.41 L39.738,16.006 C39.738,14.899 39.446,14.091 38.863,13.581 C38.279,13.072 37.343,12.818 36.056,12.818 C34.978,12.818 33.833,13.02 32.62,13.424 C31.409,13.828 30.188,14.33 28.961,14.929 L27.524,9.854 C28.631,9.256 30.016,8.694 31.678,8.171 C33.339,7.647 35.158,7.385 37.133,7.385 C38.93,7.385 40.441,7.587 41.669,7.991 C42.896,8.395 43.884,8.986 44.632,9.765 C45.38,10.543 45.912,11.493 46.227,12.616 C46.541,13.738 46.683,15.034 46.653,16.5 L46.609,22.697 C46.609,23.415 46.713,23.864 46.922,24.044 C47.131,24.224 47.596,24.344 48.315,24.403 L47.641,29.343 C45.366,29.642 43.629,29.515 42.432,28.961 C41.235,28.407 40.396,27.561 39.917,26.424 L39.783,26.424 L39.783,26.424 Z" id="Fill-30"></path>
    <path d="M64.914,28.938 L64.914,16.59 C64.914,15.333 64.656,14.465 64.139,13.985 C63.622,13.507 62.906,13.267 61.991,13.267 C61.223,13.267 60.521,13.424 59.886,13.738 C59.25,14.053 58.711,14.42 58.269,14.839 L58.269,28.938 L51.309,28.938 L51.309,8.417 L58.269,7.564 L58.224,10.976 C59.146,9.93 60.201,9.068 61.391,8.395 C62.581,7.722 63.845,7.385 65.184,7.385 C67.293,7.385 68.936,8.021 70.112,9.293 C71.286,10.565 71.874,12.324 71.874,14.569 L71.874,28.938 L64.914,28.938" id="Fill-31"></path>
    <path d="M93.369,22.742 C93.369,23.67 93.167,24.554 92.763,25.391 C92.359,26.229 91.753,26.963 90.945,27.592 C90.136,28.22 89.141,28.714 87.958,29.073 C86.776,29.433 85.421,29.612 83.895,29.612 C83.176,29.612 82.413,29.574 81.605,29.5 C80.796,29.425 80.003,29.305 79.225,29.141 C78.446,28.976 77.691,28.781 76.957,28.557 C76.223,28.332 75.587,28.07 75.049,27.77 L76.396,22.787 C77.623,23.415 78.895,23.902 80.212,24.246 C81.53,24.591 82.802,24.763 84.03,24.763 C85.915,24.763 86.859,24.194 86.859,23.056 C86.859,22.458 86.567,22.017 85.983,21.731 C85.399,21.447 84.508,21.17 83.311,20.9 C82.114,20.661 81.021,20.362 80.033,20.003 C79.045,19.643 78.206,19.194 77.519,18.655 C76.829,18.116 76.298,17.474 75.924,16.725 C75.55,15.976 75.363,15.094 75.363,14.075 C75.363,13.088 75.573,12.189 75.992,11.381 C76.41,10.573 77.009,9.87 77.787,9.27 C78.566,8.672 79.532,8.208 80.684,7.879 C81.836,7.55 83.131,7.385 84.569,7.385 C85.256,7.385 85.99,7.43 86.769,7.52 C87.546,7.609 88.318,7.737 89.081,7.901 C89.844,8.066 90.57,8.261 91.259,8.484 C91.948,8.709 92.546,8.941 93.055,9.181 L91.668,14.12 C90.476,13.521 89.231,13.058 87.934,12.728 C86.637,12.399 85.496,12.234 84.513,12.234 C82.814,12.234 81.964,12.759 81.964,13.806 C81.964,14.375 82.277,14.802 82.903,15.086 C83.529,15.37 84.409,15.632 85.542,15.871 C86.764,16.141 87.861,16.455 88.829,16.814 C89.798,17.174 90.618,17.615 91.289,18.139 C91.96,18.663 92.475,19.3 92.832,20.048 C93.191,20.796 93.369,21.694 93.369,22.742" id="Fill-32"></path>
    <path d="M108.169,19.643 C106.014,19.884 104.502,20.235 103.634,20.698 C102.766,21.163 102.332,21.859 102.332,22.787 C102.332,23.476 102.572,24.021 103.05,24.426 C103.529,24.83 104.158,25.032 104.937,25.032 C105.624,25.032 106.245,24.905 106.8,24.65 C107.354,24.396 107.81,24.059 108.169,23.64 L108.169,19.643 L108.169,19.643 Z M108.214,26.424 C107.466,27.292 106.635,28.04 105.722,28.669 C104.809,29.298 103.634,29.612 102.198,29.612 C101.299,29.612 100.461,29.462 99.683,29.163 C98.904,28.864 98.231,28.452 97.662,27.928 C97.093,27.404 96.644,26.791 96.315,26.087 C95.986,25.384 95.821,24.628 95.821,23.819 C95.821,22.832 96.023,21.904 96.427,21.035 C96.831,20.168 97.512,19.404 98.47,18.745 C99.428,18.087 100.701,17.549 102.287,17.129 C103.873,16.71 105.834,16.471 108.169,16.41 L108.169,16.006 C108.169,14.899 107.877,14.091 107.294,13.581 C106.71,13.072 105.775,12.818 104.488,12.818 C103.409,12.818 102.265,13.02 101.052,13.424 C99.84,13.828 98.619,14.33 97.393,14.929 L95.955,9.854 C97.063,9.256 98.448,8.694 100.11,8.171 C101.771,7.647 103.589,7.385 105.565,7.385 C107.362,7.385 108.872,7.587 110.101,7.991 C111.327,8.395 112.316,8.986 113.064,9.765 C113.812,10.543 114.344,11.493 114.659,12.616 C114.973,13.738 115.115,15.034 115.084,16.5 L115.04,22.697 C115.04,23.415 115.145,23.864 115.354,24.044 C115.563,24.224 116.028,24.344 116.746,24.403 L116.073,29.343 C113.797,29.642 112.061,29.515 110.864,28.961 C109.666,28.407 108.827,27.561 108.349,26.424 L108.214,26.424 L108.214,26.424 Z" id="Fill-33"></path>
    <path d="M136.75,22.742 C136.75,23.67 136.548,24.554 136.144,25.391 C135.74,26.229 135.134,26.963 134.326,27.592 C133.517,28.22 132.522,28.714 131.339,29.073 C130.157,29.433 128.802,29.612 127.276,29.612 C126.557,29.612 125.794,29.574 124.986,29.5 C124.177,29.425 123.384,29.305 122.606,29.141 C121.826,28.976 121.072,28.781 120.338,28.557 C119.604,28.332 118.968,28.07 118.43,27.77 L119.777,22.787 C121.004,23.415 122.276,23.902 123.593,24.246 C124.91,24.591 126.183,24.763 127.41,24.763 C129.296,24.763 130.24,24.194 130.24,23.056 C130.24,22.458 129.948,22.017 129.364,21.731 C128.78,21.447 127.889,21.17 126.692,20.9 C125.494,20.661 124.402,20.362 123.413,20.003 C122.426,19.643 121.587,19.194 120.9,18.655 C120.21,18.116 119.679,17.474 119.305,16.725 C118.931,15.976 118.743,15.094 118.743,14.075 C118.743,13.088 118.953,12.189 119.372,11.381 C119.791,10.573 120.39,9.87 121.168,9.27 C121.947,8.672 122.912,8.208 124.065,7.879 C125.217,7.55 126.512,7.385 127.95,7.385 C128.637,7.385 129.37,7.43 130.15,7.52 C130.927,7.609 131.699,7.737 132.462,7.901 C133.225,8.066 133.951,8.261 134.64,8.484 C135.328,8.709 135.927,8.941 136.436,9.181 L135.049,14.12 C133.857,13.521 132.612,13.058 131.315,12.728 C130.018,12.399 128.877,12.234 127.894,12.234 C126.195,12.234 125.345,12.759 125.345,13.806 C125.345,14.375 125.658,14.802 126.284,15.086 C126.909,15.37 127.789,15.632 128.923,15.871 C130.145,16.141 131.242,16.455 132.21,16.814 C133.179,17.174 133.999,17.615 134.67,18.139 C135.341,18.663 135.856,19.3 136.213,20.048 C136.572,20.796 136.75,21.694 136.75,22.742" id="Fill-34"></path>
    <path d="M22.535,47.851 C21.488,47.223 20.358,46.728 19.145,46.369 C17.933,46.01 16.698,45.83 15.441,45.83 C13.016,45.83 11.077,46.594 9.625,48.12 C8.173,49.647 7.448,51.743 7.448,54.407 C7.448,57.101 8.151,59.227 9.558,60.783 C10.965,62.34 12.941,63.118 15.486,63.118 C16.863,63.118 18.18,62.909 19.437,62.489 C20.695,62.071 21.847,61.518 22.895,60.828 L24.376,67.16 C23.269,67.759 21.869,68.245 20.178,68.619 C18.487,68.993 16.818,69.181 15.171,69.181 C12.926,69.181 10.89,68.858 9.065,68.215 C7.238,67.571 5.674,66.637 4.372,65.408 C3.07,64.182 2.06,62.662 1.341,60.851 C0.622,59.04 0.263,56.952 0.263,54.587 C0.263,52.311 0.615,50.261 1.319,48.434 C2.022,46.609 3.032,45.053 4.35,43.765 C5.666,42.478 7.26,41.49 9.132,40.801 C11.002,40.113 13.09,39.768 15.396,39.768 C17.102,39.768 18.756,39.964 20.358,40.352 C21.959,40.741 23.404,41.25 24.691,41.879 L22.535,47.851" id="Fill-35"></path>
    <path d="M28.044,68.507 L28.044,47.985 L35.004,47.133 L35.004,68.507 L28.044,68.507 L28.044,68.507 Z M35.588,40.98 C35.588,42.179 35.229,43.091 34.51,43.72 C33.792,44.349 32.788,44.663 31.502,44.663 C30.244,44.663 29.249,44.349 28.516,43.72 C27.782,43.091 27.415,42.179 27.415,40.98 C27.415,39.754 27.782,38.825 28.516,38.197 C29.249,37.568 30.244,37.254 31.502,37.254 C32.788,37.254 33.792,37.568 34.51,38.197 C35.229,38.825 35.588,39.754 35.588,40.98 L35.588,40.98 Z" id="Fill-36"></path>
    <path d="M50.765,68.978 C50.002,69.113 49.096,69.181 48.049,69.181 C45.474,69.181 43.521,68.597 42.189,67.429 C40.857,66.262 40.25,64.316 40.37,61.592 L40.685,53.643 L37.541,53.104 L37.676,48.704 L40.819,47.672 L40.909,42.912 L47.6,42.912 L47.555,47.896 L52.764,47.896 L52.629,53.329 L47.061,53.329 L46.836,60.828 C46.776,61.787 47,62.482 47.51,62.916 C48.019,63.351 48.706,63.567 49.576,63.567 C49.994,63.567 50.436,63.516 50.9,63.41 C51.364,63.306 51.835,63.179 52.315,63.028 L53.122,68.417 C52.315,68.656 51.529,68.844 50.765,68.978" id="Fill-37"></path>
    <path d="M69.99,67.518 L68.956,70.258 C68.417,71.785 67.841,73.057 67.228,74.075 C66.614,75.092 65.94,75.908 65.207,76.522 C64.473,77.136 63.664,77.569 62.783,77.824 C61.899,78.078 60.904,78.206 59.796,78.206 C57.611,78.206 55.545,77.757 53.599,76.859 L55.665,71.605 C56.353,71.904 56.929,72.137 57.394,72.301 C57.858,72.466 58.359,72.548 58.898,72.548 C59.646,72.548 60.223,72.376 60.626,72.032 C61.031,71.687 61.442,71.006 61.862,69.988 L62.446,68.372 L54.273,47.627 L61.682,47.627 L66.127,61.367 L70.169,47.627 L77.534,47.627 L69.99,67.518" id="Fill-38"></path>
    <path d="M86.091,68.507 L86.017,64.03 C87.695,62.427 89.107,61.088 90.254,60.016 C91.401,58.942 92.331,58.005 93.047,57.203 C93.762,56.402 94.281,55.692 94.601,55.076 C94.921,54.46 95.082,53.817 95.082,53.151 C95.082,52.535 94.861,52.005 94.416,51.56 C93.972,51.117 93.393,50.894 92.677,50.894 C91.789,50.894 90.944,51.08 90.143,51.45 C89.341,51.82 88.582,52.289 87.867,52.855 L85.795,48.046 C86.906,47.257 88.163,46.602 89.57,46.085 C90.975,45.566 92.455,45.308 94.009,45.308 C95.341,45.308 96.5,45.48 97.488,45.826 C98.474,46.172 99.3,46.646 99.966,47.25 C100.632,47.855 101.125,48.558 101.447,49.359 C101.767,50.161 101.927,51.018 101.927,51.931 C101.927,52.868 101.761,53.763 101.428,54.613 C101.095,55.464 100.595,56.321 99.929,57.184 C99.263,58.049 98.418,58.948 97.395,59.886 C96.371,60.823 95.168,61.859 93.787,62.994 L102.446,62.994 L102.556,68.507 L86.091,68.507" id="Fill-39"></path>
    <path d="M115.591,57.296 C115.591,55.792 115.523,54.57 115.388,53.633 C115.251,52.695 115.074,51.968 114.851,51.45 C114.629,50.932 114.376,50.58 114.092,50.395 C113.809,50.21 113.506,50.118 113.186,50.118 C112.89,50.118 112.6,50.204 112.317,50.377 C112.033,50.55 111.78,50.894 111.558,51.413 C111.336,51.931 111.163,52.652 111.04,53.577 C110.916,54.502 110.855,55.718 110.855,57.222 C110.855,58.678 110.923,59.861 111.059,60.773 C111.194,61.686 111.379,62.396 111.614,62.901 C111.848,63.407 112.113,63.746 112.409,63.919 C112.705,64.092 113.013,64.178 113.334,64.178 C113.63,64.178 113.919,64.092 114.203,63.919 C114.487,63.746 114.727,63.407 114.925,62.901 C115.122,62.396 115.283,61.693 115.407,60.792 C115.53,59.893 115.591,58.726 115.591,57.296 L115.591,57.296 Z M121.807,57.147 C121.807,61.046 121.085,64.006 119.643,66.028 C118.2,68.051 116.023,69.061 113.112,69.061 C110.201,69.061 108.074,68.062 106.73,66.064 C105.385,64.066 104.713,61.119 104.713,57.222 C104.713,53.324 105.428,50.364 106.859,48.342 C108.289,46.319 110.449,45.308 113.334,45.308 C116.244,45.308 118.384,46.319 119.753,48.342 C121.122,50.364 121.807,53.3 121.807,57.147 L121.807,57.147 Z" id="Fill-40"></path>
    <polyline id="Fill-41" points="129.166 52.301 124.208 53.188 124.024 47.528 136.234 45.345 136.234 68.507 129.166 68.507 129.166 52.301"></polyline>
    <path d="M151.869,52.189 C151.869,51.4 151.659,50.753 151.241,50.247 C150.821,49.742 150.229,49.489 149.465,49.489 C148.675,49.489 148.083,49.729 147.689,50.21 C147.294,50.691 147.097,51.277 147.097,51.968 C147.097,52.659 147.325,53.281 147.782,53.836 C148.238,54.392 149.033,54.853 150.168,55.224 C150.784,54.805 151.222,54.317 151.482,53.763 C151.741,53.207 151.869,52.684 151.869,52.189 L151.869,52.189 Z M152.165,62.143 C152.165,60.639 150.957,59.491 148.539,58.702 C147.825,59.171 147.337,59.683 147.078,60.237 C146.82,60.792 146.69,61.316 146.69,61.809 C146.69,62.574 146.924,63.234 147.393,63.789 C147.861,64.345 148.576,64.622 149.538,64.622 C150.402,64.622 151.056,64.406 151.5,63.975 C151.944,63.543 152.165,62.933 152.165,62.143 L152.165,62.143 Z M158.345,61.958 C158.345,62.944 158.165,63.87 157.808,64.732 C157.451,65.597 156.896,66.349 156.143,66.99 C155.391,67.632 154.442,68.137 153.294,68.507 C152.148,68.877 150.797,69.061 149.242,69.061 C148.009,69.061 146.85,68.926 145.765,68.655 C144.679,68.384 143.736,67.976 142.934,67.434 C142.132,66.892 141.503,66.226 141.047,65.435 C140.59,64.646 140.363,63.722 140.363,62.661 C140.363,61.551 140.739,60.577 141.492,59.738 C142.243,58.899 143.421,58.233 145.025,57.74 C143.841,57.247 142.824,56.562 141.972,55.686 C141.121,54.811 140.696,53.694 140.696,52.338 C140.696,51.327 140.868,50.395 141.214,49.544 C141.559,48.693 142.095,47.953 142.824,47.324 C143.551,46.695 144.47,46.202 145.579,45.845 C146.69,45.487 148.009,45.308 149.538,45.308 C150.772,45.308 151.907,45.443 152.943,45.715 C153.979,45.986 154.872,46.393 155.625,46.935 C156.377,47.478 156.963,48.151 157.383,48.952 C157.802,49.754 158.012,50.673 158.012,51.709 C158.012,52.769 157.666,53.707 156.976,54.52 C156.284,55.335 155.2,55.964 153.72,56.408 C154.361,56.654 154.959,56.951 155.514,57.296 C156.07,57.642 156.556,58.036 156.976,58.479 C157.395,58.924 157.728,59.436 157.975,60.016 C158.221,60.595 158.345,61.243 158.345,61.958 L158.345,61.958 Z" id="Fill-42"></path>
  </g>
  <g id="Group-4" transform="translate(0.000000, 1.000000)">
    <path d="M73.344,108.08 L69.863,103.37 C69.813,103.302 69.785,103.22 69.785,103.135 L69.785,92.714 C69.785,92.495 69.963,92.318 70.181,92.318 L77.143,92.318 C77.362,92.318 77.539,92.495 77.539,92.714 L77.539,103.135 C77.539,103.22 77.512,103.302 77.462,103.37 L73.981,108.08 C73.822,108.294 73.502,108.294 73.344,108.08" id="Fill-45" fill="#ECBE48"></path>
    <path d="M11.313,108.08 L7.831,103.37 C7.781,103.302 7.754,103.22 7.754,103.135 L7.754,92.714 C7.754,92.495 7.931,92.318 8.15,92.318 L15.112,92.318 C15.331,92.318 15.508,92.495 15.508,92.714 L15.508,103.135 C15.508,103.22 15.481,103.302 15.43,103.37 L11.949,108.08 C11.791,108.294 11.471,108.294 11.313,108.08" id="Fill-46" fill="#ECBE48"></path>
    <path d="M26.816,118.889 L23.336,114.012 C23.288,113.945 23.262,113.864 23.262,113.782 L23.262,87.316 C23.262,87.098 23.439,86.92 23.658,86.92 L30.62,86.92 C30.838,86.92 31.016,87.098 31.016,87.316 L31.016,113.782 C31.016,113.864 30.99,113.945 30.942,114.012 L27.461,118.889 C27.303,119.11 26.974,119.11 26.816,118.889" id="Fill-47" fill="#ECBE48"></path>
    <path d="M57.832,118.889 L54.351,114.012 C54.303,113.945 54.278,113.864 54.278,113.782 L54.278,87.316 C54.278,87.098 54.455,86.92 54.673,86.92 L61.635,86.92 C61.854,86.92 62.031,87.098 62.031,87.316 L62.031,113.782 C62.031,113.864 62.006,113.945 61.958,114.012 L58.477,118.889 C58.319,119.11 57.99,119.11 57.832,118.889" id="Fill-48" fill="#ECBE48"></path>
    <path d="M42.325,129.654 L38.844,124.808 C38.796,124.74 38.77,124.66 38.77,124.577 L38.77,81.919 C38.77,81.7 38.947,81.523 39.165,81.523 L46.128,81.523 C46.346,81.523 46.523,81.7 46.523,81.919 L46.523,124.577 C46.523,124.66 46.497,124.74 46.449,124.808 L42.968,129.654 C42.81,129.874 42.483,129.874 42.325,129.654" id="Fill-49" fill="#ECBE48"></path>
    <path d="M52.856,44.727 C52.676,44.902 52.385,44.868 52.251,44.656 C51.987,44.234 51.721,43.813 51.442,43.401 C50.422,41.89 49.33,40.422 48.177,39.002 C48.046,38.841 48.06,38.605 48.212,38.463 C49.92,36.865 51.731,35.377 53.627,34.012 C53.8,33.888 54.044,33.921 54.178,34.086 C55.485,35.693 56.722,37.355 57.878,39.067 C58.095,39.388 58.293,39.721 58.505,40.046 C56.499,41.458 54.611,43.024 52.856,44.727 L52.856,44.727 Z M42.295,58.63 C41.143,56.131 39.781,53.751 38.221,51.516 C38.135,51.392 38.126,51.229 38.202,51.097 C38.856,49.955 39.541,48.83 40.277,47.74 C40.926,46.779 41.617,45.844 42.331,44.925 C42.49,44.721 42.803,44.721 42.962,44.925 C43.676,45.844 44.367,46.779 45.016,47.74 C45.752,48.83 46.437,49.955 47.091,51.097 C47.167,51.229 47.159,51.392 47.072,51.516 C45.513,53.751 44.15,56.131 42.998,58.63 C42.856,58.936 42.437,58.936 42.295,58.63 L42.295,58.63 Z M26.789,40.046 C27,39.721 27.199,39.388 27.416,39.067 C28.571,37.355 29.808,35.693 31.115,34.086 C31.249,33.921 31.493,33.888 31.666,34.012 C33.562,35.377 35.373,36.865 37.081,38.463 C37.233,38.605 37.247,38.841 37.116,39.002 C35.963,40.422 34.871,41.89 33.851,43.401 C33.572,43.813 33.307,44.234 33.042,44.656 C32.909,44.868 32.617,44.902 32.437,44.727 C30.682,43.024 28.795,41.458 26.789,40.046 L26.789,40.046 Z M42.382,32.807 C40.684,31.217 38.898,29.717 37.034,28.327 C36.838,28.181 36.818,27.894 36.994,27.725 C38.714,26.077 40.519,24.516 42.398,23.05 C42.543,22.936 42.75,22.936 42.896,23.05 C44.774,24.516 46.579,26.077 48.299,27.725 C48.475,27.894 48.455,28.181 48.259,28.327 C46.395,29.717 44.61,31.217 42.911,32.806 C42.761,32.947 42.532,32.947 42.382,32.807 L42.382,32.807 Z M84.888,31.575 C77.962,31.634 71.4,33.209 65.509,35.975 C65.33,36.059 65.118,35.999 65.012,35.832 C64.778,35.462 64.548,35.09 64.304,34.727 C63.239,33.151 62.101,31.622 60.918,30.126 C60.763,29.929 60.826,29.64 61.049,29.528 C62.071,29.014 63.104,28.524 64.155,28.08 C70.726,25.303 77.705,23.871 84.903,23.821 C85.119,23.819 85.293,23.646 85.293,23.43 L85.293,16.468 C85.293,16.247 85.112,16.065 84.891,16.067 C80.816,16.093 76.747,16.516 72.789,17.324 C68.803,18.139 64.882,19.355 61.137,20.938 C59.157,21.774 57.219,22.727 55.33,23.769 C55.165,23.601 55.008,23.423 54.841,23.256 C53.224,21.639 51.532,20.091 49.775,18.62 C49.565,18.444 49.59,18.114 49.826,17.974 C52.496,16.397 55.27,14.993 58.116,13.79 C62.326,12.011 66.733,10.644 71.214,9.728 C75.688,8.814 80.291,8.338 84.903,8.312 C85.119,8.311 85.293,8.138 85.293,7.921 L85.293,0.959 C85.293,0.738 85.112,0.557 84.891,0.559 C79.763,0.585 74.642,1.114 69.662,2.131 C64.679,3.15 59.779,4.669 55.097,6.648 C50.842,8.446 46.735,10.653 42.859,13.191 C42.729,13.276 42.564,13.276 42.435,13.191 C38.558,10.653 34.452,8.446 30.196,6.648 C25.514,4.669 20.614,3.15 15.631,2.131 C10.651,1.114 5.53,0.585 0.402,0.559 C0.181,0.557 0,0.738 0,0.959 L0,7.921 C0,8.138 0.174,8.311 0.39,8.312 C5.002,8.338 9.605,8.814 14.079,9.728 C18.56,10.644 22.967,12.011 27.177,13.79 C30.023,14.993 32.797,16.397 35.467,17.974 C35.703,18.114 35.727,18.444 35.518,18.62 C33.761,20.091 32.069,21.639 30.452,23.256 C30.285,23.423 30.128,23.601 29.963,23.769 C28.074,22.727 26.137,21.774 24.156,20.938 C20.411,19.355 16.49,18.139 12.504,17.324 C8.547,16.516 4.477,16.093 0.403,16.067 C0.181,16.065 0,16.247 0,16.468 L0,23.43 C0,23.646 0.174,23.819 0.39,23.821 C7.589,23.871 14.567,25.303 21.138,28.08 C22.189,28.524 23.222,29.014 24.244,29.528 C24.468,29.64 24.53,29.929 24.375,30.126 C23.192,31.622 22.054,33.151 20.989,34.727 C20.745,35.09 20.515,35.462 20.281,35.832 C20.176,35.999 19.963,36.059 19.784,35.975 C13.893,33.209 7.331,31.634 0.405,31.575 C0.183,31.573 0,31.755 0,31.977 L0,38.938 C0,39.154 0.174,39.327 0.39,39.329 C5.887,39.383 11.11,40.581 15.836,42.692 C16.043,42.785 16.129,43.034 16.027,43.237 C15.25,44.771 14.511,46.322 13.844,47.901 C11.865,52.583 10.346,57.483 9.328,62.466 C8.283,67.575 7.754,72.835 7.754,78.097 L7.754,86.524 C7.754,86.743 7.931,86.92 8.15,86.92 L15.112,86.92 C15.331,86.92 15.508,86.743 15.508,86.524 L15.508,78.097 C15.508,73.355 15.984,68.618 16.925,64.018 C17.84,59.537 19.207,55.13 20.986,50.919 C21.513,49.673 22.09,48.447 22.694,47.232 C22.805,47.009 23.097,46.938 23.296,47.088 C25.26,48.562 27.078,50.218 28.728,52.031 C28.837,52.15 28.863,52.324 28.796,52.471 C28.57,52.959 28.343,53.446 28.134,53.94 C26.551,57.686 25.335,61.607 24.521,65.593 C23.685,69.681 23.262,73.888 23.262,78.097 L23.262,81.127 C23.262,81.346 23.439,81.523 23.658,81.523 L30.62,81.523 C30.838,81.523 31.016,81.346 31.016,81.127 L31.016,78.097 C31.016,72.084 31.984,66.223 33.889,60.62 C34.001,60.29 34.47,60.254 34.628,60.565 C36.972,65.173 38.425,70.31 38.749,75.755 C38.762,75.962 38.931,76.125 39.139,76.125 L46.154,76.125 C46.362,76.125 46.531,75.962 46.544,75.755 C46.868,70.31 48.321,65.173 50.665,60.565 C50.824,60.254 51.292,60.29 51.405,60.62 C53.309,66.223 54.278,72.084 54.278,78.097 L54.278,81.127 C54.278,81.346 54.455,81.523 54.674,81.523 L61.636,81.523 C61.854,81.523 62.031,81.346 62.031,81.127 L62.031,78.097 C62.031,73.888 61.608,69.681 60.772,65.593 C59.958,61.607 58.742,57.686 57.159,53.94 C56.95,53.446 56.723,52.959 56.497,52.471 C56.43,52.325 56.456,52.15 56.565,52.031 C58.215,50.218 60.033,48.562 61.997,47.088 C62.196,46.938 62.488,47.009 62.599,47.232 C63.203,48.447 63.78,49.673 64.307,50.919 C66.086,55.13 67.453,59.537 68.369,64.018 C69.309,68.618 69.785,73.355 69.785,78.097 L69.785,86.524 C69.785,86.743 69.963,86.92 70.181,86.92 L77.143,86.92 C77.362,86.92 77.539,86.743 77.539,86.524 L77.539,78.097 C77.539,72.835 77.01,67.575 75.966,62.466 C74.947,57.483 73.428,52.583 71.449,47.901 C70.782,46.322 70.043,44.771 69.266,43.236 C69.164,43.034 69.25,42.784 69.457,42.692 C74.183,40.581 79.406,39.383 84.903,39.329 C85.119,39.327 85.293,39.154 85.293,38.938 L85.293,31.977 C85.293,31.755 85.11,31.573 84.888,31.575 L84.888,31.575 Z" id="Fill-51" fill="#D96747"></path>
  </g>
</svg>
