<svg viewBox="0 0 100 100" version="1.1" xmlns="http://www.w3.org/2000/svg" xmlns:xlink="http://www.w3.org/1999/xlink">
  <title>Instagram</title>
  <g fill="#FFFFFF">
    <path d="M50,9.02202381 C63.3464286,9.02202381 64.9271825,9.07281746 70.1978175,9.31329365 C75.0712302,9.53571429 77.7178571,10.35 79.4793651,11.0343254 C81.8123016,11.9410714 83.4775794,13.0244048 85.2265873,14.7734127 C86.9755952,16.5224206 88.0589286,18.1876984 88.9654762,20.5206349 C89.65,22.2821429 90.4642857,24.9287698 90.6867063,29.8019841 C90.9271825,35.0728175 90.9779762,36.6535714 90.9779762,50 C90.9779762,63.3464286 90.9271825,64.9271825 90.6867063,70.1978175 C90.4642857,75.0712302 89.65,77.7178571 88.9654762,79.4793651 C88.0589286,81.8123016 86.9755952,83.4775794 85.2265873,85.2265873 C83.4775794,86.9755952 81.8123016,88.0589286 79.4793651,88.9654762 C77.7178571,89.65 75.0712302,90.4642857 70.1978175,90.6867063 C64.9279762,90.9271825 63.3472222,90.9779762 50,90.9779762 C36.6527778,90.9779762 35.0720238,90.9271825 29.8021825,90.6867063 C24.9287698,90.4642857 22.2821429,89.65 20.5208333,88.9654762 C18.1876984,88.0589286 16.5224206,86.9755952 14.7734127,85.2265873 C13.0244048,83.4775794 11.9410714,81.8123016 11.0345238,79.4793651 C10.35,77.7178571 9.53571429,75.0712302 9.31329365,70.1980159 C9.07281746,64.9271825 9.02202381,63.3464286 9.02202381,50 C9.02202381,36.6535714 9.07281746,35.0728175 9.31329365,29.8021825 C9.53571429,24.9287698 10.35,22.2821429 11.0345238,20.5206349 C11.9410714,18.1876984 13.0244048,16.5224206 14.7734127,14.7734127 C16.5224206,13.0244048 18.1876984,11.9410714 20.5208333,11.0343254 C22.2821429,10.35 24.9287698,9.53571429 29.8019841,9.31329365 C35.0728175,9.07281746 36.6535714,9.02202381 50,9.02202381 M50,0.0156746032 C36.425,0.0156746032 34.7230159,0.0732142857 29.3916667,0.316468254 C24.0712302,0.559325397 20.4378968,1.40416667 17.2583333,2.63988095 C13.9714286,3.9172619 11.1839286,5.62638889 8.40515873,8.40515873 C5.62638889,11.1839286 3.9172619,13.9714286 2.63988095,17.2583333 C1.40416667,20.4378968 0.559325397,24.0712302 0.316468254,29.3916667 C0.0732142857,34.7228175 0.0158730159,36.425 0.0158730159,50 C0.0158730159,63.575 0.0732142857,65.2771825 0.316468254,70.6083333 C0.559325397,75.9287698 1.40416667,79.5621032 2.63988095,82.7416667 C3.9172619,86.028373 5.62638889,88.8160714 8.40515873,91.5948413 C11.1839286,94.3736111 13.9714286,96.0827381 17.2583333,97.360119 C20.4378968,98.5958333 24.0712302,99.4406746 29.3916667,99.6835317 C34.7230159,99.9267857 36.425,99.984127 50,99.984127 C63.575,99.984127 65.2771825,99.9267857 70.6083333,99.6835317 C75.9287698,99.4406746 79.5621032,98.5958333 82.7416667,97.360119 C86.0285714,96.0827381 88.8160714,94.3736111 91.5948413,91.5948413 C94.3736111,88.8160714 96.0827381,86.0285714 97.360119,82.7416667 C98.5958333,79.5621032 99.4406746,75.9287698 99.6835317,70.6083333 C99.9267857,65.2771825 99.9843254,63.575 99.9843254,50 C99.9843254,36.425 99.9267857,34.7228175 99.6835317,29.3916667 C99.4406746,24.0712302 98.5958333,20.4378968 97.360119,17.2583333 C96.0827381,13.9714286 94.3736111,11.1839286 91.5948413,8.40515873 C88.8160714,5.62638889 86.0285714,3.9172619 82.7416667,2.63988095 C79.5621032,1.40416667 75.9287698,0.559325397 70.6083333,0.316468254 C65.2771825,0.0732142857 63.575,0.0156746032 50,0.0156746032"></path>
    <path d="M50,24.3323413 C35.8242063,24.3323413 24.3323413,35.8242063 24.3323413,50 C24.3323413,64.1757937 35.8242063,75.6676587 50,75.6676587 C64.1757937,75.6676587 75.6676587,64.1757937 75.6676587,50 C75.6676587,35.8242063 64.1757937,24.3323413 50,24.3323413 L50,24.3323413 Z M50,66.6615079 C40.7982143,66.6615079 33.3384921,59.2017857 33.3384921,50 C33.3384921,40.7982143 40.7982143,33.3384921 50,33.3384921 C59.2017857,33.3384921 66.6615079,40.7982143 66.6615079,50 C66.6615079,59.2017857 59.2017857,66.6615079 50,66.6615079 L50,66.6615079 Z"></path>
    <path d="M82.6797619,23.318254 C82.6797619,26.6309524 79.9944444,29.3164683 76.681746,29.3164683 C73.3690476,29.3164683 70.6835317,26.6309524 70.6835317,23.318254 C70.6835317,20.0055556 73.3690476,17.3202381 76.681746,17.3202381 C79.9944444,17.3202381 82.6797619,20.0055556 82.6797619,23.318254"></path>
  </g>
</svg>
