<svg viewBox="0 0 100 82" version="1.1" xmlns="http://www.w3.org/2000/svg" xmlns:xlink="http://www.w3.org/1999/xlink">
  <title>Twitter</title>
  <g fill="#FFFFFF">
    <path d="M31.4511455,81.2640034 C69.1909199,81.2640034 89.8329843,49.9968764 89.8329843,22.8821646 C89.8329843,21.9940758 89.8329843,21.1099874 89.7729783,20.2298993 C93.7887054,17.3252523 97.2551485,13.7287667 100.010002,9.60883712 C96.2651438,11.2682102 92.2925474,12.3564265 88.2248235,12.83716 C92.5082278,10.2728318 95.7140665,6.2395881 97.2457257,1.48802494 C93.2179529,3.87808524 88.8114666,5.56248052 84.2164226,6.46852305 C77.8561176,-0.29457622 67.7496532,-1.94986855 59.5641542,2.43083895 C51.3786552,6.81154644 47.1498155,16.1387931 49.2489255,25.1823947 C32.7508584,24.3553101 17.3796413,16.5628257 6.96069615,3.74425059 C1.51464251,13.1197672 4.29638122,25.1138257 13.3133315,31.13499 C10.0479697,31.0382105 6.85380295,30.1573449 4.00040009,28.5667331 L4.00040009,28.8267591 C4.00307288,38.5941079 10.8880949,47.006718 20.4620464,48.9407708 C17.4412227,49.7646133 14.2717497,49.8850424 11.1971198,49.292806 C13.8851804,57.6513332 21.5884573,63.37735 30.367037,63.5422311 C23.1012505,69.2525299 14.1256508,72.3524231 4.8844885,72.3431113 C3.25193951,72.3399771 1.62097838,72.241131 0,72.0470817 C9.38348225,78.0687901 20.301684,81.262871 31.4511455,81.2480018"></path>
  </g>
</svg>
